<?xml version="1.0" encoding="UTF-8" standalone="no"?>
<!-- Created with Inkscape (http://www.inkscape.org/) -->

<svg
   xmlns:dc="http://purl.org/dc/elements/1.1/"
   xmlns:cc="http://creativecommons.org/ns#"
   xmlns:rdf="http://www.w3.org/1999/02/22-rdf-syntax-ns#"
   xmlns:svg="http://www.w3.org/2000/svg"
   xmlns="http://www.w3.org/2000/svg"
   xmlns:sodipodi="http://sodipodi.sourceforge.net/DTD/sodipodi-0.dtd"
   xmlns:inkscape="http://www.inkscape.org/namespaces/inkscape"
   width="500mm"
   height="500mm"
   viewBox="0 0 500 500"
   version="1.1"
   id="svg832"
   inkscape:version="0.92.4 (5da689c313, 2019-01-14)"
   sodipodi:docname="logo_white.svg">
  <defs
     id="defs826" />
  <sodipodi:namedview
     id="base"
     pagecolor="#ffffff"
     bordercolor="#666666"
     borderopacity="1.0"
     inkscape:pageopacity="0.0"
     inkscape:pageshadow="2"
     inkscape:zoom="0.35"
     inkscape:cx="-101.42857"
     inkscape:cy="560"
     inkscape:document-units="mm"
     inkscape:current-layer="layer1"
     showgrid="false"
     inkscape:window-width="2560"
     inkscape:window-height="1377"
     inkscape:window-x="2552"
     inkscape:window-y="1432"
     inkscape:window-maximized="1" />
  <metadata
     id="metadata829">
    <rdf:RDF>
      <cc:Work
         rdf:about="">
        <dc:format>image/svg+xml</dc:format>
        <dc:type
           rdf:resource="http://purl.org/dc/dcmitype/StillImage" />
        <dc:title></dc:title>
      </cc:Work>
    </rdf:RDF>
  </metadata>
  <g
     inkscape:label="Layer 1"
     inkscape:groupmode="layer"
     id="layer1"
     transform="translate(0,203)">
    <path
       style="fill:#ffffff;fill-opacity:1;stroke-width:0.68820119"
       d="m 232.56623,292.90313 c -13.5296,-1.05525 -36.49139,-4.96046 -46.30892,-7.87597 l -3.56722,-1.05932 4.89677,-5.65377 c 17.56043,-20.27483 27.87453,-45.58616 29.78645,-73.09742 0.18414,-2.64959 0.34869,-25.19444 0.3657,-50.0997 l 0.0309,-45.28228 2.92486,1.97003 c 8.25824,5.56232 17.64581,9.62824 28.54386,12.36286 6.70697,1.68293 8.62978,1.86207 20.14638,1.87695 11.66742,0.0153 13.36115,-0.14265 20.26149,-1.88825 16.8089,-4.25198 30.67494,-12.1542 42.70954,-24.340087 14.98457,-15.172993 24.35086,-36.868358 24.66579,-57.133976 0.10682,-6.870881 0.0713,-7.040347 -1.9125,-9.118661 l -2.02127,-2.117677 h -67.65904 -67.65906 v -4.473303 -4.473304 h 71.98585 71.98584 l 2.33987,-2.339877 c 3.1741,-3.174094 3.30253,-7.126399 0.32823,-10.100679 L 362.39808,8.0470218 H 289.80042 217.20274 L 216.7304,5.2512742 c -0.86957,-5.14699486 -4.84809,-11.900477 -9.66533,-16.4067592 -2.46428,-2.3052 -5.63171,-4.777636 -7.03877,-5.494303 -9.74426,-4.963034 -22.5848,-4.615853 -31.9345,0.863441 -7.0457,4.129045 -13.9413,13.7249026 -15.41662,21.4536429 -0.28598,1.4981005 -0.54436,36.4542821 -0.57418,77.6804141 -0.0355,49.29065 -0.28988,75.04478 -0.74243,75.21418 -0.37852,0.14162 -20.19873,11.36154 -44.04488,24.93302 l -43.356662,24.67538 -2.606227,-2.85322 C 59.917422,203.7478 56.63325,199.67664 54.052685,196.27002 26.121587,159.3983 10.153301,119.08243 4.3063898,70.673327 3.1816168,61.360869 3.1729606,31.290403 4.291024,21.466959 10.305916,-31.324218 30.131669,-77.41391 63.349776,-115.82918 c 6.055333,-7.00271 19.315566,-20.31033 26.069504,-26.16268 15.71694,-13.61886 38.43,-28.20944 57.02057,-36.62925 36.16326,-16.37868 70.36639,-23.56572 108.83591,-22.86957 35.51916,0.64277 66.77582,7.81948 100.07567,22.97792 39.82823,18.13024 76.62909,49.77255 101.71699,87.45884 21.49642,32.291253 35.03235,69.431289 39.88032,109.423974 1.79206,14.783454 1.61563,43.365911 -0.35771,57.949831 -6.75095,49.892635 -26.20356,93.847905 -57.95754,130.961355 -6.42834,7.51332 -23.1526,23.92798 -30.23298,29.6733 -15.57277,12.6364 -34.56968,24.76711 -50.56527,32.28908 -26.07137,12.26012 -53.48264,19.93779 -82.25755,23.03959 -9.47089,1.02092 -33.44189,1.36641 -43.01258,0.61992 z"
       id="path1408"
       inkscape:connector-curvature="0" />
  </g>
</svg>
